<?xml version="1.0"?>
<svg xmlns="http://www.w3.org/2000/svg" xmlns:xlink="http://www.w3.org/1999/xlink" xmlns:svgjs="http://svgjs.com/svgjs" version="1.1" width="512" height="512" x="0" y="0" viewBox="0 0 512 512" style="enable-background:new 0 0 512 512" xml:space="preserve" class=""><g><g xmlns="http://www.w3.org/2000/svg"><path d="m358.202 96.774h-18.134v-86.774c0-5.522-4.478-10-10-10h-148.136c-5.522 0-10 4.478-10 10v86.774h-18.134c-5.522 0-10 4.478-10 10v353.237c0 28.666 23.322 51.988 51.989 51.988h120.426c28.667 0 51.989-23.322 51.989-51.988v-353.237c0-5.522-4.477-10-10-10zm-166.27-76.774h128.137v76.774h-128.137zm156.27 440.012c0 17.639-14.351 31.988-31.989 31.988h-120.426c-17.639 0-31.989-14.35-31.989-31.988v-343.238h184.404z" fill="#cccccc" data-original="#000000" style="" class=""/><path d="m312.679 162.787h-113.358c-5.522 0-10 4.478-10 10v148.754c0 5.522 4.478 10 10 10h113.357c5.522 0 10-4.478 10-10v-148.754c.001-5.522-4.477-10-9.999-10zm-10 148.754h-93.357v-128.754h93.357z" fill="#cccccc" data-original="#000000" style="" class=""/><path d="m281.359 38.701c-5.522 0-10 4.478-10 10v19.372c0 5.522 4.478 10 10 10s10-4.478 10-10v-19.372c0-5.522-4.477-10-10-10z" fill="#cccccc" data-original="#000000" style="" class=""/><path d="m230.641 38.701c-5.522 0-10 4.478-10 10v19.372c0 5.522 4.478 10 10 10s10-4.478 10-10v-19.372c0-5.522-4.478-10-10-10z" fill="#cccccc" data-original="#000000" style="" class=""/><path d="m256 357.247c-29.544 0-53.58 23.976-53.58 53.445s24.036 53.445 53.58 53.445 53.58-23.976 53.58-53.445-24.036-53.445-53.58-53.445zm0 86.891c-18.516 0-33.58-15.004-33.58-33.445s15.064-33.445 33.58-33.445 33.58 15.004 33.58 33.445-15.064 33.445-33.58 33.445z" fill="#cccccc" data-original="#000000" style="" class=""/></g></g></svg>
