<?xml version="1.0"?>
<svg xmlns="http://www.w3.org/2000/svg" xmlns:xlink="http://www.w3.org/1999/xlink" xmlns:svgjs="http://svgjs.com/svgjs" version="1.1" width="512" height="512" x="0" y="0" viewBox="0 0 512.003 512.003" style="enable-background:new 0 0 512 512" xml:space="preserve" class=""><g>
<g xmlns="http://www.w3.org/2000/svg">
	<g>
		<path d="M83.662,36.11c-5.523,0-10,4.477-10,10v43.049c0,5.523,4.477,10,10,10s10-4.477,10-10V46.11    C93.662,40.587,89.185,36.11,83.662,36.11z" fill="#cccccc" data-original="#000000" style="" class=""/>
	</g>
</g>
<g xmlns="http://www.w3.org/2000/svg">
	<g>
		<path d="M124.502,36.11c-5.523,0-10,4.477-10,10v43.049c0,5.523,4.477,10,10,10s10-4.477,10-10V46.11    C134.502,40.587,130.025,36.11,124.502,36.11z" fill="#cccccc" data-original="#000000" style="" class=""/>
	</g>
</g>
<g xmlns="http://www.w3.org/2000/svg">
	<g>
		<g>
			<path d="M178.47,492.002c-37.187,0-67.44-30.254-67.44-67.44v-82.017h34.152c5.523,0,10-4.477,10-10v-34.152h27.19     c14.222,0,25.792-13.399,25.792-29.869v-145.7c0-5.523-4.477-10-10-10h-18.699V10c0-5.523-4.477-10-10-10H38.699     c-5.523,0-10,4.477-10,10v102.824H10c-5.523,0-10,4.477-10,10v145.701c0,16.47,11.57,29.869,25.792,29.869h21.085v34.152     c0,5.523,4.477,10,10,10H91.03v82.017c0,48.215,39.226,87.44,87.44,87.44c48.214,0,87.44-39.226,87.44-87.44l-20-0.001     C245.91,461.749,215.657,492.002,178.47,492.002z M48.699,20h110.767v92.824H48.699V20z M25.792,278.394     c-2.361,0-5.792-3.844-5.792-9.869V132.824h168.164v15.779c-0.158-0.007-0.313-0.024-0.472-0.024h-41.438     c-5.523,0-10,4.477-10,10c0,5.523,4.477,10,10,10h41.438c0.16,0,0.314-0.017,0.472-0.024v99.97c0,6.024-3.431,9.869-5.792,9.869     H25.792z M66.878,322.546v-24.152h68.304v24.152H66.878z" fill="#cccccc" data-original="#000000" style="" class=""/>
			<path d="M487.827,256.282h-9.645V222.13c0-5.523-4.478-10-10-10h-22.678v-96.065c0-63.998-44.729-116.064-99.707-116.064     c-54.978,0-99.705,52.066-99.705,116.064l-0.182,308.478l20.001,0.019l0.182-308.497c0-52.97,35.756-96.064,79.705-96.064     c43.95,0,79.707,43.094,79.707,96.064v96.065h-22.68c-5.522,0-10,4.477-10,10v34.152h-9.645     c-13.331,0-24.176,11.735-24.176,26.159v118.503c0,5.523,4.478,10,10,10h8.553v91.059c0,5.523,4.478,10,10,10h95.893     c5.522,0,10-4.477,10-10v-91.059h8.553c5.522,0,10-4.477,10-10V282.441C512.003,268.017,501.158,256.282,487.827,256.282z      M412.824,232.13h45.357v24.152h-45.357V232.13z M439.858,492.003h-42.301v-81.059h27.947v17.385h-7.084c-5.523,0-10,4.477-10,10     v31.833c0,5.523,4.477,10,10,10h21.438V492.003z M473.449,492.002h-13.592v-21.841c0-5.523-4.478-10-10-10h-21.437v-11.833h7.084     c5.522,0,10-4.477,10-10v-27.385h27.945V492.002z M492.002,390.944H379.004V316.12h31.811c5.522,0,10-4.477,10-10     s-4.478-10-10-10h-31.811v-13.679c0-3.525,2.205-6.159,4.176-6.159h104.646c1.971,0,4.176,2.634,4.176,6.159V390.944z" fill="#cccccc" data-original="#000000" style="" class=""/>
		</g>
	</g>
</g>
<g xmlns="http://www.w3.org/2000/svg">
	<g>
		<path d="M117.169,148.579h-0.475c-5.523,0-10,4.477-10,10s4.477,10,10,10h0.475c5.523,0,10-4.477,10-10    S122.692,148.579,117.169,148.579z" fill="#cccccc" data-original="#000000" style="" class=""/>
	</g>
</g>
<g xmlns="http://www.w3.org/2000/svg">
	<g>
		<path d="M440.375,296.12H439.9c-5.522,0-10,4.477-10,10s4.478,10,10,10h0.475c5.522,0,10-4.477,10-10    S445.897,296.12,440.375,296.12z" fill="#cccccc" data-original="#000000" style="" class=""/>
	</g>
</g>
<g xmlns="http://www.w3.org/2000/svg">
</g>
<g xmlns="http://www.w3.org/2000/svg">
</g>
<g xmlns="http://www.w3.org/2000/svg">
</g>
<g xmlns="http://www.w3.org/2000/svg">
</g>
<g xmlns="http://www.w3.org/2000/svg">
</g>
<g xmlns="http://www.w3.org/2000/svg">
</g>
<g xmlns="http://www.w3.org/2000/svg">
</g>
<g xmlns="http://www.w3.org/2000/svg">
</g>
<g xmlns="http://www.w3.org/2000/svg">
</g>
<g xmlns="http://www.w3.org/2000/svg">
</g>
<g xmlns="http://www.w3.org/2000/svg">
</g>
<g xmlns="http://www.w3.org/2000/svg">
</g>
<g xmlns="http://www.w3.org/2000/svg">
</g>
<g xmlns="http://www.w3.org/2000/svg">
</g>
<g xmlns="http://www.w3.org/2000/svg">
</g>
</g></svg>
